#N canvas 246 249 905 573 10;
#X obj 57 60 inlet;
#X obj 181 516 outlet;
#X obj 367 214 f 120;
#X obj 180 108 print unexpected;
#X obj 438 520 outlet;
#X obj 482 520 outlet;
#X obj 444 449 wrap;
#X obj 481 347 line~;
#X obj 445 370 snapshot~;
#X obj 431 346 bang~;
#X obj 57 82 route tempo resolution reset;
#X obj 166 135 unpack f f;
#X obj 453 90 f 0;
#X obj 436 294 +;
#X msg 436 318 \$1 1e+07;
#X obj 367 237 / 60000;
#X obj 367 259 * 1e+07;
#X obj 445 394 t f f;
#X obj 444 427 / 1;
#X obj 444 471 * 1;
#X obj 521 392 t f f;
#X obj 521 369 f 4;
#X obj 85 153 s \$0-tempo;
#X obj 394 171 r \$0-tempo;
#X obj 228 159 s \$0-quantum;
#X obj 521 327 r \$0-quantum;
#X obj 163 160 s \$0-beat;
#X obj 460 67 r \$0-beat;
#X obj 69 107 s \$0-resolution;
#X obj 437 44 r \$0-reset;
#X obj 369 520 s \$0-phase;
#X obj 409 496 t f f;
#X obj 181 379 r \$0-phase;
#X obj 181 493 change;
#X obj 181 470 int;
#X obj 181 448 * 1;
#X obj 223 401 r \$0-resolution;
#X obj 58 131 t b f;
#X obj 58 176 s \$0-reset;
#X obj 453 133 t b f f;
#X obj 668 404 select 0;
#X obj 702 96 loadbang;
#X obj 702 118 t b b b b;
#X obj 668 446 s \$0-reset;
#X obj 712 425 s \$0-beat;
#X obj 713 331 select 0;
#X obj 743 254 select 0;
#X obj 760 181 select 0;
#X obj 437 67 bng 15 250 50 0 empty empty empty 17 7 0 10 -262144 -1
-1;
#X obj 668 382 list append \$2;
#X obj 760 159 list append \$4;
#X obj 760 204 s \$0-tempo;
#X obj 743 232 list append \$3;
#X obj 743 277 s \$0-quantum;
#X obj 713 309 list append \$1;
#X obj 713 354 s \$0-resolution;
#X obj 528 348 v abllink-quantum;
#X obj 405 192 v abllink-tempo;
#X obj 231 422 v abllink-resolution;
#X obj 453 112 - 0;
#X obj 522 67 r \$0-quantum;
#X obj 522 89 * 0.5;
#X connect 0 0 10 0;
#X connect 2 0 15 0;
#X connect 6 0 19 0;
#X connect 7 0 8 0;
#X connect 8 0 17 0;
#X connect 9 0 8 0;
#X connect 10 0 37 0;
#X connect 10 1 28 0;
#X connect 10 2 11 0;
#X connect 10 3 3 0;
#X connect 11 0 26 0;
#X connect 11 1 24 0;
#X connect 12 0 59 0;
#X connect 13 0 14 0;
#X connect 14 0 7 0;
#X connect 15 0 16 0;
#X connect 16 0 13 0;
#X connect 17 0 18 0;
#X connect 17 1 5 0;
#X connect 18 0 6 0;
#X connect 19 0 31 0;
#X connect 20 0 18 1;
#X connect 20 1 19 1;
#X connect 21 0 20 0;
#X connect 23 0 57 0;
#X connect 23 0 2 1;
#X connect 25 0 56 0;
#X connect 25 0 21 0;
#X connect 27 0 12 0;
#X connect 29 0 48 0;
#X connect 31 0 30 0;
#X connect 31 1 4 0;
#X connect 32 0 35 0;
#X connect 33 0 1 0;
#X connect 34 0 33 0;
#X connect 35 0 34 0;
#X connect 36 0 58 0;
#X connect 36 0 35 1;
#X connect 37 0 38 0;
#X connect 37 1 22 0;
#X connect 39 0 2 0;
#X connect 39 1 13 1;
#X connect 39 2 7 0;
#X connect 40 0 43 0;
#X connect 40 1 44 0;
#X connect 41 0 42 0;
#X connect 42 0 49 0;
#X connect 42 1 54 0;
#X connect 42 2 52 0;
#X connect 42 3 50 0;
#X connect 45 1 55 0;
#X connect 46 1 53 0;
#X connect 47 1 51 0;
#X connect 48 0 12 0;
#X connect 49 0 40 0;
#X connect 50 0 47 0;
#X connect 52 0 46 0;
#X connect 54 0 45 0;
#X connect 59 0 39 0;
#X connect 60 0 61 0;
#X connect 61 0 59 1;
