#N canvas 0 23 317 228 10;
#X obj 118 57 inlet;
#X obj 98 148 outlet;
#X obj 157 149 outlet;
#X obj 157 102 v abllink-tempo;
#X obj 98 126 v abllink-quantum;
#X obj 118 79 t b b;
#X connect 0 0 5 0;
#X connect 3 0 2 0;
#X connect 4 0 1 0;
#X connect 5 0 4 0;
#X connect 5 1 3 0;
